<mxfile host="ac.draw.io" modified="2024-01-04T14:14:12.778Z" agent="Mozilla/5.0 (Macintosh; Intel Mac OS X 10_15_7) AppleWebKit/537.36 (KHTML, like Gecko) Chrome/120.0.0.0 Safari/537.36" etag="aaDZALGlHhgUORGYkccN" version="22.1.16" type="embed">
  <diagram id="-MMOATbf8xOO0LAp_Jzy" name="Page-1">
    <mxGraphModel dx="-3182" dy="144" grid="1" gridSize="10" guides="1" tooltips="1" connect="1" arrows="1" fold="1" page="1" pageScale="1" pageWidth="827" pageHeight="1169" math="0" shadow="0">
      <root>
        <mxCell id="0" />
        <mxCell id="1" parent="0" />
        <mxCell id="PPdJd8WWSymhc-jwU00T-1" value="" style="rounded=1;whiteSpace=wrap;html=1;" vertex="1" parent="1">
          <mxGeometry x="5830" y="2664" width="1000" height="90" as="geometry" />
        </mxCell>
        <mxCell id="PPdJd8WWSymhc-jwU00T-2" value="" style="group" connectable="0" vertex="1" parent="1">
          <mxGeometry x="6210" y="2710" width="150" height="14" as="geometry" />
        </mxCell>
        <mxCell id="PPdJd8WWSymhc-jwU00T-3" value="" style="endArrow=classic;html=1;rounded=0;" edge="1" parent="PPdJd8WWSymhc-jwU00T-2">
          <mxGeometry width="50" height="50" relative="1" as="geometry">
            <mxPoint x="-68.18181818181817" as="sourcePoint" />
            <mxPoint x="231.8181818181818" y="14" as="targetPoint" />
            <Array as="points">
              <mxPoint />
              <mxPoint x="150" y="14" />
            </Array>
          </mxGeometry>
        </mxCell>
        <mxCell id="PPdJd8WWSymhc-jwU00T-4" value="" style="endArrow=classic;html=1;rounded=0;" edge="1" parent="PPdJd8WWSymhc-jwU00T-2">
          <mxGeometry width="50" height="50" relative="1" as="geometry">
            <mxPoint x="-68.18181818181817" y="14" as="sourcePoint" />
            <mxPoint x="231.8181818181818" as="targetPoint" />
            <Array as="points">
              <mxPoint y="14" />
              <mxPoint x="150" />
            </Array>
          </mxGeometry>
        </mxCell>
        <mxCell id="PPdJd8WWSymhc-jwU00T-5" value="Fence / Reset Isolation" style="rounded=1;whiteSpace=wrap;html=1;" vertex="1" parent="1">
          <mxGeometry x="5850" y="2738" width="130" height="30" as="geometry" />
        </mxCell>
        <mxCell id="PPdJd8WWSymhc-jwU00T-13" value="PCIE" style="rounded=1;whiteSpace=wrap;html=1;" vertex="1" parent="1">
          <mxGeometry x="5830" y="2490" width="90" height="120" as="geometry" />
        </mxCell>
        <mxCell id="PPdJd8WWSymhc-jwU00T-14" value="AIC_X_LP" style="rounded=1;whiteSpace=wrap;html=1;" vertex="1" parent="1">
          <mxGeometry x="5960" y="2490" width="120" height="120" as="geometry" />
        </mxCell>
        <mxCell id="PPdJd8WWSymhc-jwU00T-15" value="APU" style="rounded=1;whiteSpace=wrap;html=1;" vertex="1" parent="1">
          <mxGeometry x="6120" y="2490" width="120" height="120" as="geometry" />
        </mxCell>
        <mxCell id="PPdJd8WWSymhc-jwU00T-18" value="SYSDMA_HP" style="rounded=1;whiteSpace=wrap;html=1;" vertex="1" parent="1">
          <mxGeometry x="6650" y="2320" width="120" height="120" as="geometry" />
        </mxCell>
        <mxCell id="PPdJd8WWSymhc-jwU00T-19" value="Any Other Master" style="rounded=1;whiteSpace=wrap;html=1;" vertex="1" parent="1">
          <mxGeometry x="6490" y="2320" width="120" height="120" as="geometry" />
        </mxCell>
        <mxCell id="PPdJd8WWSymhc-jwU00T-20" value="" style="group" connectable="0" vertex="1" parent="1">
          <mxGeometry x="6330" y="2500" width="470" height="80" as="geometry" />
        </mxCell>
        <mxCell id="PPdJd8WWSymhc-jwU00T-21" value="" style="rounded=1;whiteSpace=wrap;html=1;" vertex="1" parent="PPdJd8WWSymhc-jwU00T-20">
          <mxGeometry width="470.00000000000006" height="80" as="geometry" />
        </mxCell>
        <mxCell id="PPdJd8WWSymhc-jwU00T-22" value="" style="group" connectable="0" vertex="1" parent="PPdJd8WWSymhc-jwU00T-20">
          <mxGeometry x="157.6219512195122" y="26.66666666666667" width="126.09756097560974" height="26.66666666666667" as="geometry" />
        </mxCell>
        <mxCell id="PPdJd8WWSymhc-jwU00T-23" value="" style="endArrow=classic;html=1;rounded=0;" edge="1" parent="PPdJd8WWSymhc-jwU00T-22">
          <mxGeometry width="50" height="50" relative="1" as="geometry">
            <mxPoint x="-57.31707317073171" as="sourcePoint" />
            <mxPoint x="194.87804878048777" y="26.66666666666667" as="targetPoint" />
            <Array as="points">
              <mxPoint />
              <mxPoint x="126.09756097560974" y="26.66666666666667" />
            </Array>
          </mxGeometry>
        </mxCell>
        <mxCell id="PPdJd8WWSymhc-jwU00T-24" value="" style="endArrow=classic;html=1;rounded=0;" edge="1" parent="PPdJd8WWSymhc-jwU00T-22">
          <mxGeometry width="50" height="50" relative="1" as="geometry">
            <mxPoint x="-57.31707317073171" y="26.66666666666667" as="sourcePoint" />
            <mxPoint x="194.87804878048777" as="targetPoint" />
            <Array as="points">
              <mxPoint y="26.66666666666667" />
              <mxPoint x="126.09756097560974" />
            </Array>
          </mxGeometry>
        </mxCell>
        <mxCell id="PPdJd8WWSymhc-jwU00T-25" value="" style="endArrow=classic;html=1;rounded=0;fontColor=#000000;startArrow=classic;startFill=1;exitX=0;exitY=0.5;exitDx=0;exitDy=0;" edge="1" parent="1">
          <mxGeometry width="50" height="50" relative="1" as="geometry">
            <mxPoint x="6550" y="2648" as="sourcePoint" />
            <mxPoint x="6550" y="2604" as="targetPoint" />
          </mxGeometry>
        </mxCell>
        <mxCell id="PPdJd8WWSymhc-jwU00T-27" value="" style="endArrow=none;html=1;rounded=0;fontColor=#000000;startArrow=classic;startFill=1;exitX=0;exitY=0.5;exitDx=0;exitDy=0;endFill=0;" edge="1" parent="1">
          <mxGeometry width="50" height="50" relative="1" as="geometry">
            <mxPoint x="5874.29" y="2660" as="sourcePoint" />
            <mxPoint x="5874.29" y="2616" as="targetPoint" />
          </mxGeometry>
        </mxCell>
        <mxCell id="PPdJd8WWSymhc-jwU00T-28" value="" style="endArrow=none;html=1;rounded=0;fontColor=#000000;startArrow=classic;startFill=1;exitX=0;exitY=0.5;exitDx=0;exitDy=0;endFill=0;" edge="1" parent="1">
          <mxGeometry width="50" height="50" relative="1" as="geometry">
            <mxPoint x="6019.29" y="2660" as="sourcePoint" />
            <mxPoint x="6019.29" y="2616" as="targetPoint" />
          </mxGeometry>
        </mxCell>
        <mxCell id="PPdJd8WWSymhc-jwU00T-29" value="" style="endArrow=none;html=1;rounded=0;fontColor=#000000;startArrow=classic;startFill=1;exitX=0;exitY=0.5;exitDx=0;exitDy=0;endFill=0;" edge="1" parent="1">
          <mxGeometry width="50" height="50" relative="1" as="geometry">
            <mxPoint x="6179.29" y="2660" as="sourcePoint" />
            <mxPoint x="6179.29" y="2616" as="targetPoint" />
          </mxGeometry>
        </mxCell>
        <mxCell id="PPdJd8WWSymhc-jwU00T-32" value="" style="endArrow=none;html=1;rounded=0;fontColor=#000000;startArrow=classic;startFill=1;exitX=0;exitY=0.5;exitDx=0;exitDy=0;endFill=0;" edge="1" parent="1">
          <mxGeometry width="50" height="50" relative="1" as="geometry">
            <mxPoint x="6718.29" y="2490" as="sourcePoint" />
            <mxPoint x="6718.29" y="2446" as="targetPoint" />
          </mxGeometry>
        </mxCell>
        <mxCell id="PPdJd8WWSymhc-jwU00T-33" value="" style="endArrow=none;html=1;rounded=0;fontColor=#000000;startArrow=classic;startFill=1;exitX=0;exitY=0.5;exitDx=0;exitDy=0;endFill=0;" edge="1" parent="1">
          <mxGeometry width="50" height="50" relative="1" as="geometry">
            <mxPoint x="6739" y="2490" as="sourcePoint" />
            <mxPoint x="6739" y="2446" as="targetPoint" />
          </mxGeometry>
        </mxCell>
        <mxCell id="PPdJd8WWSymhc-jwU00T-34" value="" style="endArrow=none;html=1;rounded=0;fontColor=#000000;startArrow=classic;startFill=1;exitX=0;exitY=0.5;exitDx=0;exitDy=0;endFill=0;" edge="1" parent="1">
          <mxGeometry width="50" height="50" relative="1" as="geometry">
            <mxPoint x="6699" y="2490" as="sourcePoint" />
            <mxPoint x="6699" y="2446" as="targetPoint" />
          </mxGeometry>
        </mxCell>
        <mxCell id="PPdJd8WWSymhc-jwU00T-35" value="" style="endArrow=none;html=1;rounded=0;fontColor=#000000;startArrow=classic;startFill=1;exitX=0;exitY=0.5;exitDx=0;exitDy=0;endFill=0;" edge="1" parent="1">
          <mxGeometry width="50" height="50" relative="1" as="geometry">
            <mxPoint x="6679" y="2490" as="sourcePoint" />
            <mxPoint x="6679" y="2446" as="targetPoint" />
          </mxGeometry>
        </mxCell>
        <mxCell id="PPdJd8WWSymhc-jwU00T-36" value="HP_NOC" style="text;html=1;align=center;verticalAlign=middle;resizable=0;points=[];autosize=1;strokeColor=none;fillColor=none;" vertex="1" parent="1">
          <mxGeometry x="6330" y="2460" width="70" height="30" as="geometry" />
        </mxCell>
        <mxCell id="PPdJd8WWSymhc-jwU00T-37" value="LP_NOC" style="text;html=1;align=center;verticalAlign=middle;resizable=0;points=[];autosize=1;strokeColor=none;fillColor=none;" vertex="1" parent="1">
          <mxGeometry x="6720" y="2634" width="70" height="30" as="geometry" />
        </mxCell>
        <mxCell id="PPdJd8WWSymhc-jwU00T-38" value="SOC_MGMT" style="rounded=1;whiteSpace=wrap;html=1;" vertex="1" parent="1">
          <mxGeometry x="5840" y="3060" width="570" height="90" as="geometry" />
        </mxCell>
        <mxCell id="PPdJd8WWSymhc-jwU00T-39" value="CSR" style="rounded=1;whiteSpace=wrap;html=1;" vertex="1" parent="1">
          <mxGeometry x="5850" y="2680" width="60" height="32" as="geometry" />
        </mxCell>
        <mxCell id="PPdJd8WWSymhc-jwU00T-40" value="" style="endArrow=classic;html=1;rounded=0;entryX=0.75;entryY=0;entryDx=0;entryDy=0;dashed=1;" edge="1" parent="1" target="PPdJd8WWSymhc-jwU00T-5">
          <mxGeometry width="50" height="50" relative="1" as="geometry">
            <mxPoint x="5910" y="2700" as="sourcePoint" />
            <mxPoint x="5960" y="2650" as="targetPoint" />
            <Array as="points">
              <mxPoint x="5948" y="2700" />
            </Array>
          </mxGeometry>
        </mxCell>
        <mxCell id="PPdJd8WWSymhc-jwU00T-43" value="l2_0_rst_n" style="endArrow=classic;html=1;rounded=0;fontColor=#000000;exitX=0.036;exitY=1.01;exitDx=0;exitDy=0;exitPerimeter=0;" edge="1" parent="1" source="PPdJd8WWSymhc-jwU00T-38">
          <mxGeometry width="50" height="50" relative="1" as="geometry">
            <mxPoint x="5810" y="2960" as="sourcePoint" />
            <mxPoint x="5862" y="3240" as="targetPoint" />
          </mxGeometry>
        </mxCell>
        <mxCell id="PPdJd8WWSymhc-jwU00T-44" value="l2_7_rst_n" style="endArrow=classic;html=1;rounded=0;fontColor=#000000;exitX=0.036;exitY=1.01;exitDx=0;exitDy=0;exitPerimeter=0;" edge="1" parent="1">
          <mxGeometry width="50" height="50" relative="1" as="geometry">
            <mxPoint x="5998.57" y="3150" as="sourcePoint" />
            <mxPoint x="5998.57" y="3239" as="targetPoint" />
          </mxGeometry>
        </mxCell>
        <mxCell id="PPdJd8WWSymhc-jwU00T-45" value="..." style="text;html=1;align=center;verticalAlign=middle;resizable=0;points=[];autosize=1;strokeColor=none;fillColor=none;" vertex="1" parent="1">
          <mxGeometry x="5935" y="3180" width="30" height="30" as="geometry" />
        </mxCell>
        <mxCell id="PPdJd8WWSymhc-jwU00T-46" value="clk" style="endArrow=classic;html=1;rounded=0;fontColor=#000000;exitX=0.036;exitY=1.01;exitDx=0;exitDy=0;exitPerimeter=0;" edge="1" parent="1">
          <mxGeometry width="50" height="50" relative="1" as="geometry">
            <mxPoint x="6074.5" y="3151" as="sourcePoint" />
            <mxPoint x="6074.5" y="3240" as="targetPoint" />
          </mxGeometry>
        </mxCell>
        <mxCell id="PPdJd8WWSymhc-jwU00T-47" value="clk_ctrl_l2_0" style="endArrow=classic;html=1;rounded=0;fontColor=#000000;exitX=0.036;exitY=1.01;exitDx=0;exitDy=0;exitPerimeter=0;" edge="1" parent="1">
          <mxGeometry width="50" height="50" relative="1" as="geometry">
            <mxPoint x="6152" y="3151" as="sourcePoint" />
            <mxPoint x="6152" y="3240" as="targetPoint" />
          </mxGeometry>
        </mxCell>
        <mxCell id="PPdJd8WWSymhc-jwU00T-48" value="clk_ctrl_l2_7" style="endArrow=classic;html=1;rounded=0;fontColor=#000000;exitX=0.036;exitY=1.01;exitDx=0;exitDy=0;exitPerimeter=0;" edge="1" parent="1">
          <mxGeometry x="-0.0048" width="50" height="50" relative="1" as="geometry">
            <mxPoint x="6251.57" y="3150" as="sourcePoint" />
            <mxPoint x="6251.57" y="3239" as="targetPoint" />
            <mxPoint as="offset" />
          </mxGeometry>
        </mxCell>
        <mxCell id="PPdJd8WWSymhc-jwU00T-49" value="..." style="text;html=1;align=center;verticalAlign=middle;resizable=0;points=[];autosize=1;strokeColor=none;fillColor=none;" vertex="1" parent="1">
          <mxGeometry x="6188" y="3180" width="30" height="30" as="geometry" />
        </mxCell>
        <mxCell id="PPdJd8WWSymhc-jwU00T-170" value="" style="group" connectable="0" vertex="1" parent="1">
          <mxGeometry x="5810" y="2770" width="200" height="284" as="geometry" />
        </mxCell>
        <mxCell id="PPdJd8WWSymhc-jwU00T-171" value="&amp;nbsp; &amp;nbsp; &amp;nbsp;SYS-SPM" style="rounded=1;whiteSpace=wrap;html=1;dashed=1;align=center;verticalAlign=middle;arcSize=2;container=0;" vertex="1" parent="PPdJd8WWSymhc-jwU00T-170">
          <mxGeometry x="30" y="61" width="170" height="199" as="geometry" />
        </mxCell>
        <mxCell id="PPdJd8WWSymhc-jwU00T-172" value="AXI" style="rounded=0;whiteSpace=wrap;html=1;horizontal=0;fillColor=#f5f5f5;strokeColor=#666666;rotation=90;fontColor=#333333;container=0;" vertex="1" parent="PPdJd8WWSymhc-jwU00T-170">
          <mxGeometry x="61" y="30" width="30" height="67.53" as="geometry" />
        </mxCell>
        <mxCell id="PPdJd8WWSymhc-jwU00T-173" value="rst_n" style="endArrow=classic;html=1;rounded=0;fontColor=#000000;entryX=0;entryY=0.5;entryDx=0;entryDy=0;" edge="1" parent="PPdJd8WWSymhc-jwU00T-170" target="PPdJd8WWSymhc-jwU00T-174">
          <mxGeometry width="50" height="50" relative="1" as="geometry">
            <mxPoint y="176" as="sourcePoint" />
            <mxPoint x="169.82999999999993" y="528" as="targetPoint" />
          </mxGeometry>
        </mxCell>
        <mxCell id="PPdJd8WWSymhc-jwU00T-174" value="rst_sync" style="whiteSpace=wrap;html=1;container=0;" vertex="1" parent="PPdJd8WWSymhc-jwU00T-170">
          <mxGeometry x="41" y="160" width="70" height="32.47" as="geometry" />
        </mxCell>
        <mxCell id="PPdJd8WWSymhc-jwU00T-175" value="SMS" style="rounded=0;whiteSpace=wrap;html=1;horizontal=0;fillColor=#f5f5f5;strokeColor=#666666;rotation=90;fontColor=#333333;container=0;" vertex="1" parent="PPdJd8WWSymhc-jwU00T-170">
          <mxGeometry x="61" y="195" width="30" height="60" as="geometry" />
        </mxCell>
        <mxCell id="PPdJd8WWSymhc-jwU00T-176" value="ATPG" style="rounded=0;whiteSpace=wrap;html=1;horizontal=0;fillColor=#f5f5f5;strokeColor=#666666;rotation=90;fontColor=#333333;container=0;" vertex="1" parent="PPdJd8WWSymhc-jwU00T-170">
          <mxGeometry x="140" y="195" width="30" height="60" as="geometry" />
        </mxCell>
        <mxCell id="PPdJd8WWSymhc-jwU00T-177" value="clk_div" style="whiteSpace=wrap;html=1;container=0;" vertex="1" parent="PPdJd8WWSymhc-jwU00T-170">
          <mxGeometry x="41" y="110" width="70" height="32.47" as="geometry" />
        </mxCell>
        <mxCell id="PPdJd8WWSymhc-jwU00T-178" value="" style="endArrow=classic;html=1;rounded=0;fontColor=#000000;startArrow=classic;startFill=1;exitX=0;exitY=0.5;exitDx=0;exitDy=0;" edge="1" parent="PPdJd8WWSymhc-jwU00T-170">
          <mxGeometry width="50" height="50" relative="1" as="geometry">
            <mxPoint x="75.5" y="284" as="sourcePoint" />
            <mxPoint x="75.5" y="240" as="targetPoint" />
          </mxGeometry>
        </mxCell>
        <mxCell id="PPdJd8WWSymhc-jwU00T-179" value="APB" style="rounded=0;whiteSpace=wrap;html=1;horizontal=0;fillColor=#f5f5f5;strokeColor=#666666;rotation=90;fontColor=#333333;container=0;" vertex="1" parent="PPdJd8WWSymhc-jwU00T-170">
          <mxGeometry x="140" y="30" width="30" height="67.53" as="geometry" />
        </mxCell>
        <mxCell id="PPdJd8WWSymhc-jwU00T-180" value="clk_ctrl" style="endArrow=classic;html=1;rounded=0;fontColor=#000000;entryX=0;entryY=0.5;entryDx=0;entryDy=0;" edge="1" parent="PPdJd8WWSymhc-jwU00T-170">
          <mxGeometry width="50" height="50" relative="1" as="geometry">
            <mxPoint y="125.73000000000002" as="sourcePoint" />
            <mxPoint x="41" y="125.73000000000002" as="targetPoint" />
          </mxGeometry>
        </mxCell>
        <mxCell id="PPdJd8WWSymhc-jwU00T-181" value="" style="endArrow=classic;html=1;rounded=0;fontColor=#000000;startArrow=classic;startFill=1;exitX=0;exitY=0.5;exitDx=0;exitDy=0;" edge="1" parent="PPdJd8WWSymhc-jwU00T-170">
          <mxGeometry width="50" height="50" relative="1" as="geometry">
            <mxPoint x="154.5" y="284" as="sourcePoint" />
            <mxPoint x="154.5" y="240" as="targetPoint" />
          </mxGeometry>
        </mxCell>
        <mxCell id="PPdJd8WWSymhc-jwU00T-182" value="" style="endArrow=none;html=1;rounded=0;fontColor=#000000;startArrow=classic;startFill=1;exitX=0;exitY=0.5;exitDx=0;exitDy=0;endFill=0;" edge="1" parent="PPdJd8WWSymhc-jwU00T-170">
          <mxGeometry width="50" height="50" relative="1" as="geometry">
            <mxPoint x="75.5" y="44" as="sourcePoint" />
            <mxPoint x="75.5" as="targetPoint" />
          </mxGeometry>
        </mxCell>
        <mxCell id="PPdJd8WWSymhc-jwU00T-183" value="" style="endArrow=none;html=1;rounded=0;fontColor=#000000;startArrow=classic;startFill=1;endFill=0;" edge="1" parent="PPdJd8WWSymhc-jwU00T-170">
          <mxGeometry width="50" height="50" relative="1" as="geometry">
            <mxPoint x="159" y="46" as="sourcePoint" />
            <mxPoint x="159.40999999999985" y="17" as="targetPoint" />
          </mxGeometry>
        </mxCell>
        <mxCell id="PPdJd8WWSymhc-jwU00T-184" value="" style="rounded=1;whiteSpace=wrap;html=1;container=0;" vertex="1" parent="PPdJd8WWSymhc-jwU00T-170">
          <mxGeometry x="140" y="6" width="40" height="10" as="geometry" />
        </mxCell>
        <mxCell id="PPdJd8WWSymhc-jwU00T-185" value="" style="endArrow=classic;html=1;rounded=0;" edge="1" parent="PPdJd8WWSymhc-jwU00T-170">
          <mxGeometry width="50" height="50" relative="1" as="geometry">
            <mxPoint x="148.53658536585317" y="9.333333333333485" as="sourcePoint" />
            <mxPoint x="170" y="12.66666666666697" as="targetPoint" />
            <Array as="points">
              <mxPoint x="153.4146341463411" y="9.333333333333485" />
              <mxPoint x="164.1463414634145" y="12.66666666666697" />
            </Array>
          </mxGeometry>
        </mxCell>
        <mxCell id="PPdJd8WWSymhc-jwU00T-186" value="" style="endArrow=classic;html=1;rounded=0;" edge="1" parent="PPdJd8WWSymhc-jwU00T-170">
          <mxGeometry width="50" height="50" relative="1" as="geometry">
            <mxPoint x="148.53658536585317" y="12.66666666666697" as="sourcePoint" />
            <mxPoint x="170" y="9.333333333333485" as="targetPoint" />
            <Array as="points">
              <mxPoint x="153.4146341463411" y="12.66666666666697" />
              <mxPoint x="164.1463414634145" y="9.333333333333485" />
            </Array>
          </mxGeometry>
        </mxCell>
        <mxCell id="PPdJd8WWSymhc-jwU00T-187" value="" style="endArrow=none;html=1;rounded=0;fontColor=#000000;startArrow=classic;startFill=1;exitX=0;exitY=0.5;exitDx=0;exitDy=0;endFill=0;" edge="1" parent="1">
          <mxGeometry width="50" height="50" relative="1" as="geometry">
            <mxPoint x="6549.5" y="2490" as="sourcePoint" />
            <mxPoint x="6549.5" y="2446" as="targetPoint" />
          </mxGeometry>
        </mxCell>
      </root>
    </mxGraphModel>
  </diagram>
</mxfile>
